<svg xmlns="http://www.w3.org/2000/svg" width="145.886" height="66.463" viewBox="0 0 145.886 66.463">
  <g id="XMLID_215_" transform="translate(-114.2 -207.6)">
    <g id="XMLID_216_" transform="translate(114.2 247.874)">
      <g id="XMLID_187_" transform="translate(0)">
        <path id="XMLID_238_" d="M130.923,315.513h-6.014v19.361h-4.656V315.513H114.2V311.4h16.684v4.113Z" transform="translate(-114.2 -311.4)" fill="#fff"/>
      </g>
      <g id="XMLID_186_" transform="translate(14.045 7.527)">
        <path id="XMLID_235_" d="M164.717,336.775v9.933h-3.841l-.233-1.513a8.26,8.26,0,0,1-5.16,1.862c-2.988,0-5.083-1.862-5.083-4.772s2.6-5.277,7.643-4.5l2.212.349v-1.358c0-1.824-1.513-2.522-3.1-2.522a4.938,4.938,0,0,0-3.841,1.862l-2.716-2.6c1.707-1.862,3.725-2.716,7.023-2.716C161.729,330.8,164.717,332.624,164.717,336.775Zm-7.6,6.906a4.826,4.826,0,0,0,3.182-1.4v-1.591l-1.242-.233c-3.026-.582-3.841.5-3.841,1.552A1.7,1.7,0,0,0,157.112,343.681Z" transform="translate(-150.4 -330.8)" fill="#fff"/>
      </g>
      <g id="XMLID_185_" transform="translate(31.04 0.039)">
        <path id="XMLID_233_" d="M202.619,326.011l6.712,5.975v5.665l-10.553-9.7v6.984H194.2V311.5h4.578v12.959l5.277-5.122H209.6Z" transform="translate(-194.2 -311.5)" fill="#fff"/>
      </g>
      <g id="XMLID_184_" transform="translate(46.831 7.449)">
        <path id="XMLID_230_" d="M250.032,340.106H239.44c.233,2.056,1.28,3.3,3.453,3.3,1.513,0,2.522-.543,3.608-2.173l3.22,1.591a7.165,7.165,0,0,1-6.751,4.074c-5.471,0-8.07-3.453-8.07-8.148,0-4.617,2.91-8.148,7.915-8.148,4.54,0,7.333,3.182,7.333,8.148C250.109,339.213,250.109,339.64,250.032,340.106Zm-10.515-3.065H245.8c-.31-1.824-1.242-2.832-3.065-2.832C240.875,334.208,239.905,335.334,239.517,337.041Z" transform="translate(-234.9 -330.6)" fill="#fff"/>
      </g>
      <g id="XMLID_181_" transform="translate(87.376)">
        <path id="XMLID_228_" d="M356.123,315.513h-6.014v19.361h-4.656V315.513H339.4V311.4h16.684v4.113Z" transform="translate(-339.4 -311.4)" fill="#fff"/>
      </g>
      <g id="XMLID_180_" transform="translate(101.034 7.449)">
        <path id="XMLID_225_" d="M389.732,340.106H379.14c.233,2.056,1.28,3.3,3.453,3.3,1.513,0,2.522-.543,3.608-2.173l3.22,1.591a7.165,7.165,0,0,1-6.751,4.074c-5.471,0-8.07-3.453-8.07-8.148,0-4.617,2.91-8.148,7.915-8.148,4.54,0,7.333,3.182,7.333,8.148C389.809,339.213,389.771,339.64,389.732,340.106Zm-10.515-3.065H385.5c-.31-1.824-1.242-2.832-3.065-2.832C380.575,334.208,379.605,335.334,379.217,337.041Z" transform="translate(-374.6 -330.6)" fill="#fff"/>
      </g>
      <g id="XMLID_179_" transform="translate(117.174 7.488)">
        <path id="XMLID_223_" d="M416.2,338.848c0-4.734,2.988-8.148,7.643-8.148a8.843,8.843,0,0,1,3.88.815v4.229a4.3,4.3,0,0,0-3.143-1.2c-2.367,0-3.841,1.824-3.841,4.307s1.474,4.307,3.841,4.307a4.391,4.391,0,0,0,3.143-1.2V346.1a7.608,7.608,0,0,1-3.88.892C419.188,347,416.2,343.581,416.2,338.848Z" transform="translate(-416.2 -330.7)" fill="#fff"/>
      </g>
      <g id="XMLID_178_" transform="translate(130.638 0.078)">
        <path id="XMLID_221_" d="M466.148,325.1V335H461.57v-9.312a2.646,2.646,0,0,0-2.91-2.638,3.023,3.023,0,0,0-3.182,2.91v9.079H450.9V311.6h4.578v9.428a6.172,6.172,0,0,1,4.54-1.9A5.644,5.644,0,0,1,466.148,325.1Z" transform="translate(-450.9 -311.6)" fill="#fff"/>
      </g>
      <g id="XMLID_177_" transform="translate(68.093 7.527)">
        <path id="XMLID_218_" d="M304.017,336.775v9.933h-3.841l-.233-1.513a8.26,8.26,0,0,1-5.16,1.862c-2.988,0-5.083-1.862-5.083-4.772s2.6-5.277,7.644-4.5l2.212.349v-1.358c0-1.824-1.513-2.522-3.1-2.522a4.938,4.938,0,0,0-3.841,1.862l-2.716-2.6c1.707-1.862,3.725-2.716,7.023-2.716C301.029,330.8,304.017,332.624,304.017,336.775Zm-7.644,6.906a4.826,4.826,0,0,0,3.182-1.4v-1.591l-1.242-.233c-3.026-.582-3.841.5-3.841,1.552A1.7,1.7,0,0,0,296.374,343.681Z" transform="translate(-289.7 -330.8)" fill="#df1f26"/>
      </g>
    </g>
    <path id="XMLID_176_" d="M247.907,207.6h34.26a1.722,1.722,0,0,1,1.707,1.707v34.26a1.722,1.722,0,0,1-1.707,1.707h-34.26a1.722,1.722,0,0,1-1.707-1.707v-34.26a1.674,1.674,0,0,1,1.707-1.707" transform="translate(-80.785 0)" fill="#79777c" fill-rule="evenodd"/>
    <path id="XMLID_175_" d="M260.98,221.1h24.638a1.292,1.292,0,0,1,1.28,1.28v24.638a1.292,1.292,0,0,1-1.28,1.28H260.98a1.292,1.292,0,0,1-1.28-1.28V222.38a1.292,1.292,0,0,1,1.28-1.28" transform="translate(-89.047 -8.262)" fill="#fff" fill-rule="evenodd"/>
    <path id="XMLID_174_" d="M254.3,251.659v-9.2l2.134-1.164v11.523Z" transform="translate(-85.742 -20.625)" fill="#fff"/>
    <path id="XMLID_173_" d="M331.734,251.659v-9.2L329.6,241.3v11.523Z" transform="translate(-131.826 -20.625)" fill="#fff"/>
    <path id="XMLID_172_" d="M250.409,211a1.009,1.009,0,1,1-1.009,1.009A1,1,0,0,1,250.409,211" transform="translate(-82.743 -2.081)" fill="#fff" fill-rule="evenodd"/>
    <path id="XMLID_171_" d="M250.409,296.7a1.009,1.009,0,1,1-1.009,1.009,1,1,0,0,1,1.009-1.009" transform="translate(-82.743 -54.53)" fill="#fff" fill-rule="evenodd"/>
    <path id="XMLID_170_" d="M336.109,296.7a1.009,1.009,0,1,1-1.009,1.009,1,1,0,0,1,1.009-1.009" transform="translate(-135.192 -54.53)" fill="#fff" fill-rule="evenodd"/>
    <path id="XMLID_169_" d="M336.109,211a1.009,1.009,0,1,1-1.009,1.009A1,1,0,0,1,336.109,211" transform="translate(-135.192 -2.081)" fill="#fff" fill-rule="evenodd"/>
    <g id="XMLID_188_" transform="translate(172.516 214.351)">
      <g id="XMLID_1402_">
        <path id="XMLID_1570_" d="M265.1,225a.5.5,0,1,1-.5.5.489.489,0,0,1,.5-.5" transform="translate(-264.561 -225)" fill="#df1f26" fill-rule="evenodd"/>
        <path id="XMLID_1569_" d="M265.1,229.3a.5.5,0,1,1-.5.5.489.489,0,0,1,.5-.5" transform="translate(-264.561 -227.632)" fill="#df1f26" fill-rule="evenodd"/>
        <path id="XMLID_1568_" d="M265.1,263.4a.5.5,0,1,1-.5.5.469.469,0,0,1,.5-.5" transform="translate(-264.561 -248.501)" fill="#df1f26" fill-rule="evenodd"/>
        <path id="XMLID_1567_" d="M265.1,267.6a.5.5,0,1,1-.5.5.489.489,0,0,1,.5-.5" transform="translate(-264.561 -251.071)" fill="#df1f26" fill-rule="evenodd"/>
        <path id="XMLID_1566_" d="M264.5,259.6a.5.5,0,1,1,.5.5.514.514,0,0,1-.5-.5" transform="translate(-264.5 -245.869)" fill="#df1f26" fill-rule="evenodd"/>
        <path id="XMLID_1565_" d="M264.5,255.3a.5.5,0,1,1,.5.5.489.489,0,0,1-.5-.5" transform="translate(-264.5 -243.238)" fill="#df1f26" fill-rule="evenodd"/>
        <path id="XMLID_1564_" d="M264.5,251.1a.5.5,0,1,1,.5.5.514.514,0,0,1-.5-.5" transform="translate(-264.5 -240.667)" fill="#df1f26" fill-rule="evenodd"/>
        <path id="XMLID_1563_" d="M264.5,246.8a.5.5,0,1,1,.5.5.514.514,0,0,1-.5-.5" transform="translate(-264.5 -238.036)" fill="#df1f26" fill-rule="evenodd"/>
        <path id="XMLID_1562_" d="M264.5,242.6a.5.5,0,1,1,.5.5.514.514,0,0,1-.5-.5" transform="translate(-264.5 -235.465)" fill="#df1f26" fill-rule="evenodd"/>
        <path id="XMLID_1561_" d="M264.5,238.3a.5.5,0,1,1,.5.5.514.514,0,0,1-.5-.5" transform="translate(-264.5 -232.834)" fill="#df1f26" fill-rule="evenodd"/>
        <path id="XMLID_1560_" d="M264.5,234a.5.5,0,1,1,.5.5.514.514,0,0,1-.5-.5" transform="translate(-264.5 -230.202)" fill="#df1f26" fill-rule="evenodd"/>
        <path id="XMLID_1559_" d="M269.2,225a.5.5,0,1,1-.5.5.514.514,0,0,1,.5-.5" transform="translate(-267.07 -225)" fill="#df1f26" fill-rule="evenodd"/>
        <path id="XMLID_1558_" d="M269.2,229.3a.5.5,0,1,1-.5.5.514.514,0,0,1,.5-.5" transform="translate(-267.07 -227.632)" fill="#df1f26" fill-rule="evenodd"/>
        <path id="XMLID_1557_" d="M269.2,263.4a.5.5,0,1,1-.5.5.489.489,0,0,1,.5-.5" transform="translate(-267.07 -248.501)" fill="#df1f26" fill-rule="evenodd"/>
        <path id="XMLID_1556_" d="M269.2,267.6a.5.5,0,1,1-.5.5.514.514,0,0,1,.5-.5" transform="translate(-267.07 -251.071)" fill="#df1f26" fill-rule="evenodd"/>
        <path id="XMLID_1555_" d="M268.7,259.6a.5.5,0,1,1,.5.5.514.514,0,0,1-.5-.5" transform="translate(-267.07 -245.869)" fill="#df1f26" fill-rule="evenodd"/>
        <path id="XMLID_1554_" d="M268.7,255.3a.5.5,0,1,1,.5.5.489.489,0,0,1-.5-.5" transform="translate(-267.07 -243.238)" fill="#df1f26" fill-rule="evenodd"/>
        <path id="XMLID_1553_" d="M268.7,251.1a.5.5,0,1,1,.5.5.514.514,0,0,1-.5-.5" transform="translate(-267.07 -240.667)" fill="#df1f26" fill-rule="evenodd"/>
        <path id="XMLID_1552_" d="M268.7,246.8a.5.5,0,1,1,.5.5.514.514,0,0,1-.5-.5" transform="translate(-267.07 -238.036)" fill="#df1f26" fill-rule="evenodd"/>
        <path id="XMLID_1551_" d="M273.3,225a.5.5,0,1,1-.5.5.489.489,0,0,1,.5-.5" transform="translate(-269.58 -225)" fill="#df1f26" fill-rule="evenodd"/>
        <path id="XMLID_1550_" d="M273.3,229.3a.5.5,0,1,1-.5.5.489.489,0,0,1,.5-.5" transform="translate(-269.58 -227.632)" fill="#df1f26" fill-rule="evenodd"/>
        <path id="XMLID_1549_" d="M273.3,263.4a.5.5,0,1,1-.5.5.469.469,0,0,1,.5-.5" transform="translate(-269.58 -248.501)" fill="#df1f26" fill-rule="evenodd"/>
        <path id="XMLID_1548_" d="M273.3,267.6a.5.5,0,1,1-.5.5.489.489,0,0,1,.5-.5" transform="translate(-269.58 -251.071)" fill="#df1f26" fill-rule="evenodd"/>
        <path id="XMLID_1547_" d="M272.8,259.6a.5.5,0,1,1,.5.5.489.489,0,0,1-.5-.5" transform="translate(-269.58 -245.869)" fill="#df1f26" fill-rule="evenodd"/>
        <path id="XMLID_1546_" d="M272.8,255.3a.5.5,0,1,1,.5.5.469.469,0,0,1-.5-.5" transform="translate(-269.58 -243.238)" fill="#df1f26" fill-rule="evenodd"/>
        <path id="XMLID_1545_" d="M272.8,251.1a.5.5,0,1,1,.5.5.489.489,0,0,1-.5-.5" transform="translate(-269.58 -240.667)" fill="#df1f26" fill-rule="evenodd"/>
        <path id="XMLID_1544_" d="M272.8,246.8a.5.5,0,1,1,.5.5.489.489,0,0,1-.5-.5" transform="translate(-269.58 -238.036)" fill="#df1f26" fill-rule="evenodd"/>
        <path id="XMLID_1543_" d="M277.4,225a.5.5,0,1,1-.5.5.514.514,0,0,1,.5-.5" transform="translate(-272.089 -225)" fill="#df1f26" fill-rule="evenodd"/>
        <path id="XMLID_1542_" d="M277.4,229.3a.5.5,0,1,1-.5.5.514.514,0,0,1,.5-.5" transform="translate(-272.089 -227.632)" fill="#df1f26" fill-rule="evenodd"/>
        <path id="XMLID_1541_" d="M277.4,263.4a.5.5,0,1,1-.5.5.489.489,0,0,1,.5-.5" transform="translate(-272.089 -248.501)" fill="#df1f26" fill-rule="evenodd"/>
        <path id="XMLID_1540_" d="M277.4,267.6a.5.5,0,1,1-.5.5.514.514,0,0,1,.5-.5" transform="translate(-272.089 -251.071)" fill="#df1f26" fill-rule="evenodd"/>
        <path id="XMLID_1539_" d="M276.9,259.6a.5.5,0,1,1,.5.5.514.514,0,0,1-.5-.5" transform="translate(-272.089 -245.869)" fill="#df1f26" fill-rule="evenodd"/>
        <path id="XMLID_1538_" d="M276.9,255.3a.5.5,0,1,1,.5.5.489.489,0,0,1-.5-.5" transform="translate(-272.089 -243.238)" fill="#df1f26" fill-rule="evenodd"/>
        <path id="XMLID_1537_" d="M276.9,251.1a.5.5,0,1,1,.5.5.514.514,0,0,1-.5-.5" transform="translate(-272.089 -240.667)" fill="#df1f26" fill-rule="evenodd"/>
        <path id="XMLID_1536_" d="M276.9,246.8a.5.5,0,1,1,.5.5.514.514,0,0,1-.5-.5" transform="translate(-272.089 -238.036)" fill="#df1f26" fill-rule="evenodd"/>
        <path id="XMLID_1535_" d="M281.6,225a.5.5,0,1,1-.5.5.514.514,0,0,1,.5-.5" transform="translate(-274.659 -225)" fill="#df1f26" fill-rule="evenodd"/>
        <path id="XMLID_1534_" d="M281.6,229.3a.5.5,0,1,1-.5.5.514.514,0,0,1,.5-.5" transform="translate(-274.659 -227.632)" fill="#df1f26" fill-rule="evenodd"/>
        <path id="XMLID_1533_" d="M281.6,263.4a.5.5,0,1,1-.5.5.489.489,0,0,1,.5-.5" transform="translate(-274.659 -248.501)" fill="#df1f26" fill-rule="evenodd"/>
        <path id="XMLID_1532_" d="M281.6,267.6a.5.5,0,1,1-.5.5.514.514,0,0,1,.5-.5" transform="translate(-274.659 -251.071)" fill="#df1f26" fill-rule="evenodd"/>
        <path id="XMLID_1531_" d="M281.1,259.6a.5.5,0,1,1,.5.5.514.514,0,0,1-.5-.5" transform="translate(-274.659 -245.869)" fill="#df1f26" fill-rule="evenodd"/>
        <path id="XMLID_1530_" d="M281.1,255.3a.5.5,0,1,1,.5.5.489.489,0,0,1-.5-.5" transform="translate(-274.659 -243.238)" fill="#df1f26" fill-rule="evenodd"/>
        <path id="XMLID_1529_" d="M281.1,251.1a.5.5,0,1,1,.5.5.514.514,0,0,1-.5-.5" transform="translate(-274.659 -240.667)" fill="#df1f26" fill-rule="evenodd"/>
        <path id="XMLID_1528_" d="M281.1,246.8a.5.5,0,1,1,.5.5.514.514,0,0,1-.5-.5" transform="translate(-274.659 -238.036)" fill="#df1f26" fill-rule="evenodd"/>
        <path id="XMLID_1527_" d="M285.8,225a.5.5,0,1,1-.5.5.489.489,0,0,1,.5-.5" transform="translate(-277.23 -225)" fill="#df1f26" fill-rule="evenodd"/>
        <path id="XMLID_1526_" d="M285.8,229.3a.5.5,0,1,1-.5.5.489.489,0,0,1,.5-.5" transform="translate(-277.23 -227.632)" fill="#df1f26" fill-rule="evenodd"/>
        <path id="XMLID_1525_" d="M285.8,263.4a.5.5,0,1,1-.5.5.469.469,0,0,1,.5-.5" transform="translate(-277.23 -248.501)" fill="#df1f26" fill-rule="evenodd"/>
        <path id="XMLID_1524_" d="M285.8,267.6a.5.5,0,1,1-.5.5.489.489,0,0,1,.5-.5" transform="translate(-277.23 -251.071)" fill="#df1f26" fill-rule="evenodd"/>
        <path id="XMLID_1523_" d="M285.3,259.6a.5.5,0,1,1,.5.5.489.489,0,0,1-.5-.5" transform="translate(-277.23 -245.869)" fill="#df1f26" fill-rule="evenodd"/>
        <path id="XMLID_1522_" d="M285.3,255.3a.5.5,0,1,1,.5.5.469.469,0,0,1-.5-.5" transform="translate(-277.23 -243.238)" fill="#df1f26" fill-rule="evenodd"/>
        <path id="XMLID_1521_" d="M285.3,251.1a.5.5,0,1,1,.5.5.489.489,0,0,1-.5-.5" transform="translate(-277.23 -240.667)" fill="#df1f26" fill-rule="evenodd"/>
        <path id="XMLID_1520_" d="M285.3,246.8a.5.5,0,1,1,.5.5.489.489,0,0,1-.5-.5" transform="translate(-277.23 -238.036)" fill="#df1f26" fill-rule="evenodd"/>
        <path id="XMLID_1519_" d="M289.8,225a.5.5,0,1,1-.5.5.514.514,0,0,1,.5-.5" transform="translate(-279.678 -225)" fill="#df1f26" fill-rule="evenodd"/>
        <path id="XMLID_1518_" d="M289.8,229.3a.5.5,0,1,1-.5.5.514.514,0,0,1,.5-.5" transform="translate(-279.678 -227.632)" fill="#df1f26" fill-rule="evenodd"/>
        <path id="XMLID_1517_" d="M294,225a.5.5,0,1,1-.5.5.514.514,0,0,1,.5-.5" transform="translate(-282.248 -225)" fill="#df1f26" fill-rule="evenodd"/>
        <path id="XMLID_1516_" d="M294,229.3a.5.5,0,1,1-.5.5.514.514,0,0,1,.5-.5" transform="translate(-282.248 -227.632)" fill="#df1f26" fill-rule="evenodd"/>
        <path id="XMLID_1515_" d="M298,225a.5.5,0,1,1-.5.5.514.514,0,0,1,.5-.5" transform="translate(-284.696 -225)" fill="#df1f26" fill-rule="evenodd"/>
        <path id="XMLID_1514_" d="M298,229.3a.5.5,0,1,1-.5.5.514.514,0,0,1,.5-.5" transform="translate(-284.696 -227.632)" fill="#df1f26" fill-rule="evenodd"/>
        <path id="XMLID_1513_" d="M302.2,225a.5.5,0,1,1-.5.5.514.514,0,0,1,.5-.5" transform="translate(-287.267 -225)" fill="#df1f26" fill-rule="evenodd"/>
        <path id="XMLID_1512_" d="M302.2,229.3a.5.5,0,1,1-.5.5.514.514,0,0,1,.5-.5" transform="translate(-287.267 -227.632)" fill="#df1f26" fill-rule="evenodd"/>
        <path id="XMLID_1511_" d="M302.2,263.4a.5.5,0,1,1-.5.5.489.489,0,0,1,.5-.5" transform="translate(-287.267 -248.501)" fill="#df1f26" fill-rule="evenodd"/>
        <path id="XMLID_1510_" d="M302.2,267.6a.5.5,0,1,1-.5.5.514.514,0,0,1,.5-.5" transform="translate(-287.267 -251.071)" fill="#df1f26" fill-rule="evenodd"/>
        <path id="XMLID_1509_" d="M301.7,259.6a.5.5,0,1,1,.5.5.514.514,0,0,1-.5-.5" transform="translate(-287.267 -245.869)" fill="#df1f26" fill-rule="evenodd"/>
        <path id="XMLID_1508_" d="M301.7,255.3a.5.5,0,1,1,.5.5.489.489,0,0,1-.5-.5" transform="translate(-287.267 -243.238)" fill="#df1f26" fill-rule="evenodd"/>
        <path id="XMLID_1507_" d="M301.7,251.1a.5.5,0,1,1,.5.5.514.514,0,0,1-.5-.5" transform="translate(-287.267 -240.667)" fill="#df1f26" fill-rule="evenodd"/>
        <path id="XMLID_1506_" d="M301.7,246.8a.5.5,0,1,1,.5.5.514.514,0,0,1-.5-.5" transform="translate(-287.267 -238.036)" fill="#df1f26" fill-rule="evenodd"/>
        <path id="XMLID_1505_" d="M265.1,284.7a.5.5,0,1,1-.5.5.469.469,0,0,1,.5-.5" transform="translate(-264.561 -261.537)" fill="#df1f26" fill-rule="evenodd"/>
        <path id="XMLID_1504_" d="M264.5,280.9a.5.5,0,1,1,.5.5.514.514,0,0,1-.5-.5" transform="translate(-264.5 -258.905)" fill="#df1f26" fill-rule="evenodd"/>
        <path id="XMLID_1503_" d="M264.5,276.6a.5.5,0,1,1,.5.5.489.489,0,0,1-.5-.5" transform="translate(-264.5 -256.273)" fill="#df1f26" fill-rule="evenodd"/>
        <path id="XMLID_1502_" d="M264.5,272.4a.5.5,0,1,1,.5.5.514.514,0,0,1-.5-.5" transform="translate(-264.5 -253.703)" fill="#df1f26" fill-rule="evenodd"/>
        <path id="XMLID_1501_" d="M269.2,284.7a.5.5,0,1,1-.5.5.489.489,0,0,1,.5-.5" transform="translate(-267.07 -261.537)" fill="#df1f26" fill-rule="evenodd"/>
        <path id="XMLID_1500_" d="M268.7,280.9a.5.5,0,1,1,.5.5.514.514,0,0,1-.5-.5" transform="translate(-267.07 -258.905)" fill="#df1f26" fill-rule="evenodd"/>
        <path id="XMLID_1499_" d="M268.7,276.6a.5.5,0,1,1,.5.5.489.489,0,0,1-.5-.5" transform="translate(-267.07 -256.273)" fill="#df1f26" fill-rule="evenodd"/>
        <path id="XMLID_1498_" d="M268.7,272.4a.5.5,0,1,1,.5.5.514.514,0,0,1-.5-.5" transform="translate(-267.07 -253.703)" fill="#df1f26" fill-rule="evenodd"/>
        <path id="XMLID_1497_" d="M273.3,284.7a.5.5,0,1,1-.5.5.469.469,0,0,1,.5-.5" transform="translate(-269.58 -261.537)" fill="#df1f26" fill-rule="evenodd"/>
        <path id="XMLID_1496_" d="M272.8,280.9a.5.5,0,1,1,.5.5.489.489,0,0,1-.5-.5" transform="translate(-269.58 -258.905)" fill="#df1f26" fill-rule="evenodd"/>
        <path id="XMLID_1495_" d="M272.8,276.6a.5.5,0,1,1,.5.5.469.469,0,0,1-.5-.5" transform="translate(-269.58 -256.273)" fill="#df1f26" fill-rule="evenodd"/>
        <path id="XMLID_1494_" d="M272.8,272.4a.5.5,0,1,1,.5.5.489.489,0,0,1-.5-.5" transform="translate(-269.58 -253.703)" fill="#df1f26" fill-rule="evenodd"/>
        <path id="XMLID_1493_" d="M277.4,284.7a.5.5,0,1,1-.5.5.489.489,0,0,1,.5-.5" transform="translate(-272.089 -261.537)" fill="#df1f26" fill-rule="evenodd"/>
        <path id="XMLID_1492_" d="M276.9,280.9a.5.5,0,1,1,.5.5.514.514,0,0,1-.5-.5" transform="translate(-272.089 -258.905)" fill="#df1f26" fill-rule="evenodd"/>
        <path id="XMLID_1491_" d="M276.9,276.6a.5.5,0,1,1,.5.5.489.489,0,0,1-.5-.5" transform="translate(-272.089 -256.273)" fill="#df1f26" fill-rule="evenodd"/>
        <path id="XMLID_1490_" d="M276.9,272.4a.5.5,0,1,1,.5.5.514.514,0,0,1-.5-.5" transform="translate(-272.089 -253.703)" fill="#df1f26" fill-rule="evenodd"/>
        <path id="XMLID_1489_" d="M281.6,284.7a.5.5,0,1,1-.5.5.489.489,0,0,1,.5-.5" transform="translate(-274.659 -261.537)" fill="#df1f26" fill-rule="evenodd"/>
        <path id="XMLID_1488_" d="M281.1,280.9a.5.5,0,1,1,.5.5.514.514,0,0,1-.5-.5" transform="translate(-274.659 -258.905)" fill="#df1f26" fill-rule="evenodd"/>
        <path id="XMLID_1487_" d="M281.1,276.6a.5.5,0,1,1,.5.5.489.489,0,0,1-.5-.5" transform="translate(-274.659 -256.273)" fill="#df1f26" fill-rule="evenodd"/>
        <path id="XMLID_1486_" d="M281.1,272.4a.5.5,0,1,1,.5.5.514.514,0,0,1-.5-.5" transform="translate(-274.659 -253.703)" fill="#df1f26" fill-rule="evenodd"/>
        <path id="XMLID_1485_" d="M285.8,284.7a.5.5,0,1,1-.5.5.469.469,0,0,1,.5-.5" transform="translate(-277.23 -261.537)" fill="#df1f26" fill-rule="evenodd"/>
        <path id="XMLID_1484_" d="M285.3,280.9a.5.5,0,1,1,.5.5.489.489,0,0,1-.5-.5" transform="translate(-277.23 -258.905)" fill="#df1f26" fill-rule="evenodd"/>
        <path id="XMLID_1483_" d="M285.3,276.6a.5.5,0,1,1,.5.5.469.469,0,0,1-.5-.5" transform="translate(-277.23 -256.273)" fill="#df1f26" fill-rule="evenodd"/>
        <path id="XMLID_1482_" d="M285.3,272.4a.5.5,0,1,1,.5.5.489.489,0,0,1-.5-.5" transform="translate(-277.23 -253.703)" fill="#df1f26" fill-rule="evenodd"/>
        <path id="XMLID_1481_" d="M289.8,284.7a.5.5,0,1,1-.5.5.489.489,0,0,1,.5-.5" transform="translate(-279.678 -261.537)" fill="#df1f26" fill-rule="evenodd"/>
        <path id="XMLID_1480_" d="M294,284.7a.5.5,0,1,1-.5.5.489.489,0,0,1,.5-.5" transform="translate(-282.248 -261.537)" fill="#df1f26" fill-rule="evenodd"/>
        <path id="XMLID_1479_" d="M298,284.7a.5.5,0,1,1-.5.5.489.489,0,0,1,.5-.5" transform="translate(-284.696 -261.537)" fill="#df1f26" fill-rule="evenodd"/>
        <path id="XMLID_1478_" d="M302.2,284.7a.5.5,0,1,1-.5.5.489.489,0,0,1,.5-.5" transform="translate(-287.267 -261.537)" fill="#df1f26" fill-rule="evenodd"/>
        <path id="XMLID_1477_" d="M301.7,280.9a.5.5,0,1,1,.5.5.514.514,0,0,1-.5-.5" transform="translate(-287.267 -258.905)" fill="#df1f26" fill-rule="evenodd"/>
        <path id="XMLID_1476_" d="M301.7,276.6a.5.5,0,1,1,.5.5.489.489,0,0,1-.5-.5" transform="translate(-287.267 -256.273)" fill="#df1f26" fill-rule="evenodd"/>
        <path id="XMLID_1475_" d="M301.7,272.4a.5.5,0,1,1,.5.5.514.514,0,0,1-.5-.5" transform="translate(-287.267 -253.703)" fill="#df1f26" fill-rule="evenodd"/>
        <path id="XMLID_1474_" d="M306.4,225a.5.5,0,1,1-.5.5.514.514,0,0,1,.5-.5" transform="translate(-289.837 -225)" fill="#df1f26" fill-rule="evenodd"/>
        <path id="XMLID_1473_" d="M306.4,229.3a.5.5,0,1,1-.5.5.514.514,0,0,1,.5-.5" transform="translate(-289.837 -227.632)" fill="#df1f26" fill-rule="evenodd"/>
        <path id="XMLID_1472_" d="M306.4,263.4a.5.5,0,1,1-.5.5.489.489,0,0,1,.5-.5" transform="translate(-289.837 -248.501)" fill="#df1f26" fill-rule="evenodd"/>
        <path id="XMLID_1471_" d="M306.4,267.6a.5.5,0,1,1-.5.5.514.514,0,0,1,.5-.5" transform="translate(-289.837 -251.071)" fill="#df1f26" fill-rule="evenodd"/>
        <path id="XMLID_1470_" d="M305.9,259.6a.5.5,0,1,1,.5.5.514.514,0,0,1-.5-.5" transform="translate(-289.837 -245.869)" fill="#df1f26" fill-rule="evenodd"/>
        <path id="XMLID_1469_" d="M305.9,255.3a.5.5,0,1,1,.5.5.489.489,0,0,1-.5-.5" transform="translate(-289.837 -243.238)" fill="#df1f26" fill-rule="evenodd"/>
        <path id="XMLID_1468_" d="M305.9,251.1a.5.5,0,1,1,.5.5.514.514,0,0,1-.5-.5" transform="translate(-289.837 -240.667)" fill="#df1f26" fill-rule="evenodd"/>
        <path id="XMLID_1467_" d="M305.9,246.8a.5.5,0,1,1,.5.5.514.514,0,0,1-.5-.5" transform="translate(-289.837 -238.036)" fill="#df1f26" fill-rule="evenodd"/>
        <path id="XMLID_1466_" d="M310.6,225a.5.5,0,1,1-.5.5.489.489,0,0,1,.5-.5" transform="translate(-292.408 -225)" fill="#df1f26" fill-rule="evenodd"/>
        <path id="XMLID_1465_" d="M310.6,229.3a.5.5,0,1,1-.5.5.489.489,0,0,1,.5-.5" transform="translate(-292.408 -227.632)" fill="#df1f26" fill-rule="evenodd"/>
        <path id="XMLID_1464_" d="M310.6,263.4a.5.5,0,1,1-.5.5.469.469,0,0,1,.5-.5" transform="translate(-292.408 -248.501)" fill="#df1f26" fill-rule="evenodd"/>
        <path id="XMLID_1463_" d="M310.6,267.6a.5.5,0,1,1-.5.5.489.489,0,0,1,.5-.5" transform="translate(-292.408 -251.071)" fill="#df1f26" fill-rule="evenodd"/>
        <path id="XMLID_1462_" d="M310,259.6a.5.5,0,1,1,.5.5.514.514,0,0,1-.5-.5" transform="translate(-292.346 -245.869)" fill="#df1f26" fill-rule="evenodd"/>
        <path id="XMLID_1461_" d="M310,255.3a.5.5,0,1,1,.5.5.489.489,0,0,1-.5-.5" transform="translate(-292.346 -243.238)" fill="#df1f26" fill-rule="evenodd"/>
        <path id="XMLID_1460_" d="M310,251.1a.5.5,0,1,1,.5.5.514.514,0,0,1-.5-.5" transform="translate(-292.346 -240.667)" fill="#df1f26" fill-rule="evenodd"/>
        <path id="XMLID_1459_" d="M310,246.8a.5.5,0,1,1,.5.5.514.514,0,0,1-.5-.5" transform="translate(-292.346 -238.036)" fill="#df1f26" fill-rule="evenodd"/>
        <path id="XMLID_1458_" d="M314.6,225a.5.5,0,1,1-.5.5.514.514,0,0,1,.5-.5" transform="translate(-294.855 -225)" fill="#df1f26" fill-rule="evenodd"/>
        <path id="XMLID_1457_" d="M314.6,229.3a.5.5,0,1,1-.5.5.514.514,0,0,1,.5-.5" transform="translate(-294.855 -227.632)" fill="#df1f26" fill-rule="evenodd"/>
        <path id="XMLID_1456_" d="M314.6,263.4a.5.5,0,1,1-.5.5.489.489,0,0,1,.5-.5" transform="translate(-294.855 -248.501)" fill="#df1f26" fill-rule="evenodd"/>
        <path id="XMLID_1455_" d="M314.6,267.6a.5.5,0,1,1-.5.5.514.514,0,0,1,.5-.5" transform="translate(-294.855 -251.071)" fill="#df1f26" fill-rule="evenodd"/>
        <path id="XMLID_1454_" d="M314.1,259.6a.5.5,0,1,1,.5.5.514.514,0,0,1-.5-.5" transform="translate(-294.855 -245.869)" fill="#df1f26" fill-rule="evenodd"/>
        <path id="XMLID_1453_" d="M314.1,255.3a.5.5,0,1,1,.5.5.489.489,0,0,1-.5-.5" transform="translate(-294.855 -243.238)" fill="#df1f26" fill-rule="evenodd"/>
        <path id="XMLID_1452_" d="M314.1,251.1a.5.5,0,1,1,.5.5.514.514,0,0,1-.5-.5" transform="translate(-294.855 -240.667)" fill="#df1f26" fill-rule="evenodd"/>
        <path id="XMLID_1451_" d="M314.1,246.8a.5.5,0,1,1,.5.5.514.514,0,0,1-.5-.5" transform="translate(-294.855 -238.036)" fill="#df1f26" fill-rule="evenodd"/>
        <path id="XMLID_1450_" d="M318.8,225a.5.5,0,1,1-.5.5.489.489,0,0,1,.5-.5" transform="translate(-297.426 -225)" fill="#df1f26" fill-rule="evenodd"/>
        <path id="XMLID_1449_" d="M318.8,229.3a.5.5,0,1,1-.5.5.489.489,0,0,1,.5-.5" transform="translate(-297.426 -227.632)" fill="#df1f26" fill-rule="evenodd"/>
        <path id="XMLID_1448_" d="M318.8,263.4a.5.5,0,1,1-.5.5.469.469,0,0,1,.5-.5" transform="translate(-297.426 -248.501)" fill="#df1f26" fill-rule="evenodd"/>
        <path id="XMLID_1447_" d="M318.8,267.6a.5.5,0,1,1-.5.5.489.489,0,0,1,.5-.5" transform="translate(-297.426 -251.071)" fill="#df1f26" fill-rule="evenodd"/>
        <path id="XMLID_1446_" d="M318.3,259.6a.5.5,0,1,1,.5.5.489.489,0,0,1-.5-.5" transform="translate(-297.426 -245.869)" fill="#df1f26" fill-rule="evenodd"/>
        <path id="XMLID_1445_" d="M318.3,255.3a.5.5,0,1,1,.5.5.469.469,0,0,1-.5-.5" transform="translate(-297.426 -243.238)" fill="#df1f26" fill-rule="evenodd"/>
        <path id="XMLID_1444_" d="M318.3,251.1a.5.5,0,1,1,.5.5.489.489,0,0,1-.5-.5" transform="translate(-297.426 -240.667)" fill="#df1f26" fill-rule="evenodd"/>
        <path id="XMLID_1443_" d="M318.3,246.8a.5.5,0,1,1,.5.5.489.489,0,0,1-.5-.5" transform="translate(-297.426 -238.036)" fill="#df1f26" fill-rule="evenodd"/>
        <path id="XMLID_1442_" d="M322.8,225a.5.5,0,1,1-.5.5.514.514,0,0,1,.5-.5" transform="translate(-299.874 -225)" fill="#df1f26" fill-rule="evenodd"/>
        <path id="XMLID_1441_" d="M322.8,229.3a.5.5,0,1,1-.5.5.514.514,0,0,1,.5-.5" transform="translate(-299.874 -227.632)" fill="#df1f26" fill-rule="evenodd"/>
        <path id="XMLID_1440_" d="M322.8,263.4a.5.5,0,1,1-.5.5.489.489,0,0,1,.5-.5" transform="translate(-299.874 -248.501)" fill="#df1f26" fill-rule="evenodd"/>
        <path id="XMLID_1439_" d="M322.8,267.6a.5.5,0,1,1-.5.5.514.514,0,0,1,.5-.5" transform="translate(-299.874 -251.071)" fill="#df1f26" fill-rule="evenodd"/>
        <path id="XMLID_1438_" d="M322.3,259.6a.5.5,0,1,1,.5.5.514.514,0,0,1-.5-.5" transform="translate(-299.874 -245.869)" fill="#df1f26" fill-rule="evenodd"/>
        <path id="XMLID_1437_" d="M322.3,255.3a.5.5,0,1,1,.5.5.489.489,0,0,1-.5-.5" transform="translate(-299.874 -243.238)" fill="#df1f26" fill-rule="evenodd"/>
        <path id="XMLID_1436_" d="M322.3,251.1a.5.5,0,1,1,.5.5.514.514,0,0,1-.5-.5" transform="translate(-299.874 -240.667)" fill="#df1f26" fill-rule="evenodd"/>
        <path id="XMLID_1435_" d="M322.3,246.8a.5.5,0,1,1,.5.5.514.514,0,0,1-.5-.5" transform="translate(-299.874 -238.036)" fill="#df1f26" fill-rule="evenodd"/>
        <path id="XMLID_1434_" d="M322.3,242.6a.5.5,0,1,1,.5.5.514.514,0,0,1-.5-.5" transform="translate(-299.874 -235.465)" fill="#df1f26" fill-rule="evenodd"/>
        <path id="XMLID_1433_" d="M322.3,238.3a.5.5,0,1,1,.5.5.514.514,0,0,1-.5-.5" transform="translate(-299.874 -232.834)" fill="#df1f26" fill-rule="evenodd"/>
        <path id="XMLID_1432_" d="M322.3,234a.5.5,0,1,1,.5.5.514.514,0,0,1-.5-.5" transform="translate(-299.874 -230.202)" fill="#df1f26" fill-rule="evenodd"/>
        <path id="XMLID_1431_" d="M306.4,284.7a.5.5,0,1,1-.5.5.489.489,0,0,1,.5-.5" transform="translate(-289.837 -261.537)" fill="#df1f26" fill-rule="evenodd"/>
        <path id="XMLID_1430_" d="M305.9,280.9a.5.5,0,1,1,.5.5.514.514,0,0,1-.5-.5" transform="translate(-289.837 -258.905)" fill="#df1f26" fill-rule="evenodd"/>
        <path id="XMLID_1429_" d="M305.9,276.6a.5.5,0,1,1,.5.5.489.489,0,0,1-.5-.5" transform="translate(-289.837 -256.273)" fill="#df1f26" fill-rule="evenodd"/>
        <path id="XMLID_1428_" d="M305.9,272.4a.5.5,0,1,1,.5.5.514.514,0,0,1-.5-.5" transform="translate(-289.837 -253.703)" fill="#df1f26" fill-rule="evenodd"/>
        <path id="XMLID_1427_" d="M310.6,284.7a.5.5,0,1,1-.5.5.469.469,0,0,1,.5-.5" transform="translate(-292.408 -261.537)" fill="#df1f26" fill-rule="evenodd"/>
        <path id="XMLID_1426_" d="M310,280.9a.5.5,0,1,1,.5.5.514.514,0,0,1-.5-.5" transform="translate(-292.346 -258.905)" fill="#df1f26" fill-rule="evenodd"/>
        <path id="XMLID_1425_" d="M310,276.6a.5.5,0,1,1,.5.5.489.489,0,0,1-.5-.5" transform="translate(-292.346 -256.273)" fill="#df1f26" fill-rule="evenodd"/>
        <path id="XMLID_1424_" d="M310,272.4a.5.5,0,1,1,.5.5.514.514,0,0,1-.5-.5" transform="translate(-292.346 -253.703)" fill="#df1f26" fill-rule="evenodd"/>
        <path id="XMLID_1423_" d="M314.6,284.7a.5.5,0,1,1-.5.5.489.489,0,0,1,.5-.5" transform="translate(-294.855 -261.537)" fill="#df1f26" fill-rule="evenodd"/>
        <path id="XMLID_1422_" d="M314.1,280.9a.5.5,0,1,1,.5.5.514.514,0,0,1-.5-.5" transform="translate(-294.855 -258.905)" fill="#df1f26" fill-rule="evenodd"/>
        <path id="XMLID_1421_" d="M314.1,276.6a.5.5,0,1,1,.5.5.489.489,0,0,1-.5-.5" transform="translate(-294.855 -256.273)" fill="#df1f26" fill-rule="evenodd"/>
        <path id="XMLID_1420_" d="M314.1,272.4a.5.5,0,1,1,.5.5.514.514,0,0,1-.5-.5" transform="translate(-294.855 -253.703)" fill="#df1f26" fill-rule="evenodd"/>
        <path id="XMLID_1419_" d="M318.8,284.7a.5.5,0,1,1-.5.5.469.469,0,0,1,.5-.5" transform="translate(-297.426 -261.537)" fill="#df1f26" fill-rule="evenodd"/>
        <path id="XMLID_1418_" d="M318.3,280.9a.5.5,0,1,1,.5.5.489.489,0,0,1-.5-.5" transform="translate(-297.426 -258.905)" fill="#df1f26" fill-rule="evenodd"/>
        <path id="XMLID_1417_" d="M318.3,276.6a.5.5,0,1,1,.5.5.469.469,0,0,1-.5-.5" transform="translate(-297.426 -256.273)" fill="#df1f26" fill-rule="evenodd"/>
        <path id="XMLID_1416_" d="M318.3,272.4a.5.5,0,1,1,.5.5.489.489,0,0,1-.5-.5" transform="translate(-297.426 -253.703)" fill="#df1f26" fill-rule="evenodd"/>
        <path id="XMLID_1415_" d="M322.8,284.7a.5.5,0,1,1-.5.5.489.489,0,0,1,.5-.5" transform="translate(-299.874 -261.537)" fill="#df1f26" fill-rule="evenodd"/>
        <path id="XMLID_1414_" d="M322.3,280.9a.5.5,0,1,1,.5.5.514.514,0,0,1-.5-.5" transform="translate(-299.874 -258.905)" fill="#df1f26" fill-rule="evenodd"/>
        <path id="XMLID_1413_" d="M322.3,276.6a.5.5,0,1,1,.5.5.489.489,0,0,1-.5-.5" transform="translate(-299.874 -256.273)" fill="#df1f26" fill-rule="evenodd"/>
        <path id="XMLID_1412_" d="M322.3,272.4a.5.5,0,1,1,.5.5.514.514,0,0,1-.5-.5" transform="translate(-299.874 -253.703)" fill="#df1f26" fill-rule="evenodd"/>
        <path id="XMLID_1411_" d="M268.7,242.6a.5.5,0,1,1,.5.5.514.514,0,0,1-.5-.5" transform="translate(-267.07 -235.465)" fill="#df1f26" fill-rule="evenodd"/>
        <path id="XMLID_1410_" d="M268.7,238.3a.5.5,0,1,1,.5.5.514.514,0,0,1-.5-.5" transform="translate(-267.07 -232.834)" fill="#df1f26" fill-rule="evenodd"/>
        <path id="XMLID_1409_" d="M268.7,234a.5.5,0,1,1,.5.5.514.514,0,0,1-.5-.5" transform="translate(-267.07 -230.202)" fill="#df1f26" fill-rule="evenodd"/>
        <path id="XMLID_1408_" d="M318.2,242.6a.5.5,0,1,1,.5.5.514.514,0,0,1-.5-.5" transform="translate(-297.365 -235.465)" fill="#df1f26" fill-rule="evenodd"/>
        <path id="XMLID_1407_" d="M318.2,238.3a.5.5,0,1,1,.5.5.514.514,0,0,1-.5-.5" transform="translate(-297.365 -232.834)" fill="#df1f26" fill-rule="evenodd"/>
        <path id="XMLID_1406_" d="M318.2,234a.5.5,0,1,1,.5.5.514.514,0,0,1-.5-.5" transform="translate(-297.365 -230.202)" fill="#df1f26" fill-rule="evenodd"/>
        <path id="XMLID_1405_" d="M289.1,280.9a.5.5,0,1,1,.5.5.514.514,0,0,1-.5-.5" transform="translate(-279.555 -258.905)" fill="#df1f26" fill-rule="evenodd"/>
        <path id="XMLID_1404_" d="M293.3,280.9a.5.5,0,1,1,.5.5.514.514,0,0,1-.5-.5" transform="translate(-282.126 -258.905)" fill="#df1f26" fill-rule="evenodd"/>
        <path id="XMLID_1403_" d="M297.5,280.9a.5.5,0,1,1,.5.5.514.514,0,0,1-.5-.5" transform="translate(-284.696 -258.905)" fill="#df1f26" fill-rule="evenodd"/>
      </g>
    </g>
  </g>
</svg>
