<svg id="new-product" xmlns="http://www.w3.org/2000/svg" width="60.865" height="60.865" viewBox="0 0 60.865 60.865">
  <path id="Path_5" data-name="Path 5" d="M107.535,288H70.981l-3.927,7.854h3.552v17.67h37.3v-17.67h3.552Zm-1.214,1.963,1.963,3.927H92.81l-1.963-3.927Zm-34.127,0H87.67l-1.963,3.927H70.231Zm33.752,21.6H90.24v-6.872H88.276v6.872H72.569V295.854H86.92l1.357-2.714v8.6H90.24v-8.6l1.357,2.714h14.35Zm0,0" transform="translate(-58.826 -252.659)" fill="#fff"/>
  <path id="Path_6" data-name="Path 6" d="M128,416h5.89v1.963H128Zm0,0" transform="translate(-112.293 -364.952)" fill="#fff"/>
  <path id="Path_7" data-name="Path 7" d="M128,448h5.89v1.963H128Zm0,0" transform="translate(-112.293 -393.025)" fill="#fff"/>
  <path id="Path_8" data-name="Path 8" d="M192,448h1.963v1.963H192Zm0,0" transform="translate(-168.439 -393.025)" fill="#fff"/>
  <path id="Path_9" data-name="Path 9" d="M191.292,25.863l4.534-1.156,4.534,1.155.355-4.868,2.408-4.114-4.259-1.844-3.038-3.756-3.039,3.756-4.259,1.844,2.408,4.114Zm2.718-9.217,1.815-2.243,1.815,2.244,2.668,1.156L198.79,20.4l-.218,2.985-2.747-.7-2.747.7-.218-2.985L191.342,17.8Zm0,0" transform="translate(-165.393 -9.897)" fill="#fff"/>
  <path id="Path_10" data-name="Path 10" d="M35.812,105.068l1.427-2.436-2.527-1.095-1.825-2.257-1.825,2.256-2.527,1.095,1.427,2.436.211,2.9,2.715-.69,2.715.691Zm-1.924-.6-.075,1.022-.927-.235-.926.235-.076-1.022-.537-.918.936-.405.6-.743.6.744.936.406Zm0,0" transform="translate(-25.033 -87.098)" fill="#fff"/>
  <path id="Path_11" data-name="Path 11" d="M403.813,105.068l1.427-2.436-2.527-1.095-1.825-2.257-1.825,2.256-2.527,1.095,1.427,2.436.211,2.9,2.714-.69,2.716.691Zm-1.924-.6-.075,1.022-.927-.235-.926.235-.075-1.022-.537-.918.936-.405.6-.743.6.744.936.406Zm0,0" transform="translate(-347.876 -87.098)" fill="#fff"/>
  <path id="Path_12" data-name="Path 12" d="M94.4,146.082a21.771,21.771,0,0,1,4.933,4.524l3.888,4.859-.8-6.432a12.609,12.609,0,0,0-4.921-8.48l-.94-.705L93.68,145.6Zm2.83-3.19a10.655,10.655,0,0,1,3.172,5.924,23.77,23.77,0,0,0-4.2-3.872Zm0,0" transform="translate(-82.184 -122.687)" fill="#fff"/>
  <path id="Path_13" data-name="Path 13" d="M325.355,149.025l-.8,6.432,3.888-4.86a21.792,21.792,0,0,1,4.933-4.524l.72-.481-2.877-5.754-.94.707a12.606,12.606,0,0,0-4.92,8.479Zm6.214-4.089a23.7,23.7,0,0,0-4.2,3.872,10.661,10.661,0,0,1,3.172-5.924Zm0,0" transform="translate(-284.724 -122.68)" fill="#fff"/>
  <path id="Path_14" data-name="Path 14" d="M280,141.178h1.963v-4.113a20.228,20.228,0,0,1,4.682-12.929l-1.509-1.257A22.2,22.2,0,0,0,280,137.065Zm0,0" transform="translate(-245.641 -107.801)" fill="#fff"/>
  <path id="Path_15" data-name="Path 15" d="M336,96h1.963v1.963H336Zm0,0" transform="translate(-294.769 -84.22)" fill="#fff"/>
  <path id="Path_16" data-name="Path 16" d="M360,64h1.963v1.963H360Zm0,0" transform="translate(-315.824 -56.146)" fill="#fff"/>
  <path id="Path_17" data-name="Path 17" d="M166.536,141.177H168.5v-4.113a22.2,22.2,0,0,0-5.135-14.186l-1.509,1.257a20.233,20.233,0,0,1,4.681,12.929Zm0,0" transform="translate(-141.994 -107.8)" fill="#fff"/>
  <path id="Path_18" data-name="Path 18" d="M144,96h1.963v1.963H144Zm0,0" transform="translate(-126.33 -84.22)" fill="#fff"/>
  <path id="Path_19" data-name="Path 19" d="M120,64h1.963v1.963H120Zm0,0" transform="translate(-105.275 -56.146)" fill="#fff"/>
  <path id="Path_20" data-name="Path 20" d="M240,136h1.963v1.963H240Zm0,0" transform="translate(-210.549 -119.311)" fill="#fff"/>
  <path id="Path_21" data-name="Path 21" d="M240,168h1.963v12.762H240Zm0,0" transform="translate(-210.549 -147.385)" fill="#fff"/>
  <path id="Path_22" data-name="Path 22" d="M464,216h1.963v1.963H464Zm0,0" transform="translate(-407.062 -189.494)" fill="#fff"/>
  <path id="Path_23" data-name="Path 23" d="M464,248h1.963v1.963H464Zm0,0" transform="translate(-407.062 -217.568)" fill="#fff"/>
  <path id="Path_24" data-name="Path 24" d="M480,232h1.963v1.963H480Zm0,0" transform="translate(-421.099 -203.531)" fill="#fff"/>
  <path id="Path_25" data-name="Path 25" d="M448,232h1.963v1.963H448Zm0,0" transform="translate(-393.025 -203.531)" fill="#fff"/>
  <path id="Path_26" data-name="Path 26" d="M440,0h1.963V1.963H440Zm0,0" transform="translate(-386.007)" fill="#fff"/>
  <path id="Path_27" data-name="Path 27" d="M440,32h1.963v1.963H440Zm0,0" transform="translate(-386.007 -28.073)" fill="#fff"/>
  <path id="Path_28" data-name="Path 28" d="M456,16h1.963v1.963H456Zm0,0" transform="translate(-400.044 -14.037)" fill="#fff"/>
  <path id="Path_29" data-name="Path 29" d="M424,16h1.963v1.963H424Zm0,0" transform="translate(-371.97 -14.037)" fill="#fff"/>
  <path id="Path_30" data-name="Path 30" d="M16,248h1.963v1.963H16Zm0,0" transform="translate(-14.037 -217.568)" fill="#fff"/>
  <path id="Path_31" data-name="Path 31" d="M16,280h1.963v1.963H16Zm0,0" transform="translate(-14.037 -245.641)" fill="#fff"/>
  <path id="Path_32" data-name="Path 32" d="M32,264h1.963v1.963H32Zm0,0" transform="translate(-28.073 -231.604)" fill="#fff"/>
  <path id="Path_33" data-name="Path 33" d="M0,264H1.963v1.963H0Zm0,0" transform="translate(0 -231.604)" fill="#fff"/>
  <path id="Path_34" data-name="Path 34" d="M16,0h1.963V1.963H16Zm0,0" transform="translate(-14.037)" fill="#fff"/>
  <path id="Path_35" data-name="Path 35" d="M16,32h1.963v1.963H16Zm0,0" transform="translate(-14.037 -28.073)" fill="#fff"/>
  <path id="Path_36" data-name="Path 36" d="M32,16h1.963v1.963H32Zm0,0" transform="translate(-28.073 -14.037)" fill="#fff"/>
  <path id="Path_37" data-name="Path 37" d="M0,16H1.963v1.963H0Zm0,0" transform="translate(0 -14.037)" fill="#fff"/>
</svg>
