<svg xmlns="http://www.w3.org/2000/svg" width="59.388" height="51.444" viewBox="0 0 59.388 51.444">
  <g id="tools" transform="translate(0 -34.24)">
    <g id="Group_10" data-name="Group 10" transform="translate(0 34.24)">
      <g id="Group_9" data-name="Group 9" transform="translate(0 0)">
        <path id="Path_1" data-name="Path 1" d="M52.517,34.24H46.393a.882.882,0,1,0,0,1.764h6.123a5.112,5.112,0,0,1,5.107,5.106V68.828a5.112,5.112,0,0,1-5.107,5.106H6.87a5.112,5.112,0,0,1-5.106-5.106V41.11A5.112,5.112,0,0,1,6.87,36H43.453a.882.882,0,1,0,0-1.764H6.87A6.878,6.878,0,0,0,0,41.11V68.828A6.878,6.878,0,0,0,6.87,75.7h14V79.28A5.542,5.542,0,0,0,15.7,84.8a.882.882,0,0,0,.882.882H42.807a.882.882,0,0,0,.882-.882,5.542,5.542,0,0,0-5.174-5.523V75.7h14a6.878,6.878,0,0,0,6.871-6.87V41.11A6.878,6.878,0,0,0,52.517,34.24ZM22.637,75.7H36.751v3.569H22.637ZM41.821,83.92H17.567a3.779,3.779,0,0,1,3.668-2.89H38.153A3.779,3.779,0,0,1,41.821,83.92Z" transform="translate(0 -34.24)" fill="#fff"/>
      </g>
    </g>
    <g id="Group_12" data-name="Group 12" transform="translate(30.159 42.399)">
      <g id="Group_11" data-name="Group 11" transform="translate(0 0)">
        <path id="Path_2" data-name="Path 2" d="M274.745,115.7l5.626,5.626a.882.882,0,0,0,1.247-1.247l-5.263-5.263a8.29,8.29,0,0,0-13-8.6.882.882,0,0,0,.133,1.5l3.926,1.961a2.356,2.356,0,1,1-2.106,4.216l-4.016-2.006a.882.882,0,0,0-1.276.766,8.29,8.29,0,0,0,10.354,8.247l9.628,9.628a.882.882,0,0,0,1.248-1.247l-10-10a.882.882,0,0,0-.9-.214,6.533,6.533,0,0,1-8.445-4.9l2.617,1.307A4.121,4.121,0,0,0,268.2,108.1l-2.46-1.229a6.525,6.525,0,0,1,8.788,7.947A.881.881,0,0,0,274.745,115.7Z" transform="translate(-260.009 -104.58)" fill="#fff"/>
      </g>
    </g>
    <g id="Group_14" data-name="Group 14" transform="translate(7.904 44.935)">
      <g id="Group_13" data-name="Group 13" transform="translate(0 0)">
        <path id="Path_3" data-name="Path 3" d="M97.288,148.606,92.7,144.022a3.769,3.769,0,0,0-4.311-.724l-8.117-8.117L79.83,131.2a.882.882,0,0,0-.439-.668l-6.943-3.963a.882.882,0,0,0-1.061.142l-2.981,2.981a.882.882,0,0,0-.142,1.061l3.963,6.943a.882.882,0,0,0,.668.439l4.143.463,8.032,8.032a3.776,3.776,0,0,0-.332,2.258.882.882,0,0,0,1.741-.286,2.008,2.008,0,0,1,.559-1.742l1.588-1.588a2,2,0,0,1,2.83,0l4.585,4.585a.882.882,0,1,0,1.247-1.247Zm-20.328-11.8-3.425-.383-3.407-5.969,2.029-2.029,5.969,3.407.383,3.425Zm9.209,8.42L78.6,137.664l.832-.832L87,144.4Z" transform="translate(-68.147 -126.449)" fill="#fff"/>
      </g>
    </g>
    <g id="Group_16" data-name="Group 16" transform="translate(4.517 38.757)">
      <g id="Group_15" data-name="Group 15" transform="translate(0 0)">
        <path id="Path_4" data-name="Path 4" d="M86.945,73.18H41.3a2.356,2.356,0,0,0-2.352,2.354V103.25A2.356,2.356,0,0,0,41.3,105.6h1.748a.882.882,0,0,0,0-1.764H41.3a.59.59,0,0,1-.588-.59V75.534a.59.59,0,0,1,.588-.59H86.945a.591.591,0,0,1,.59.59V103.25a.592.592,0,0,1-.325.527.574.574,0,0,1-.266.063H45.986a.882.882,0,0,0,0,1.764H86.945A2.355,2.355,0,0,0,89.3,103.25V75.534A2.357,2.357,0,0,0,86.945,73.18Z" transform="translate(-38.946 -73.18)" fill="#fff"/>
      </g>
    </g>
  </g>
</svg>
