<svg xmlns="http://www.w3.org/2000/svg" width="20" height="20" viewBox="0 0 20 20">
  <path id="Subtraction_1" data-name="Subtraction 1" d="M10,20A10,10,0,1,1,20,10,10.011,10.011,0,0,1,10,20ZM4,14.018H4a7.328,7.328,0,0,0,3.94,1.151,7.224,7.224,0,0,0,7.3-7.292c0-.108,0-.219-.007-.328a5.252,5.252,0,0,0,1.283-1.328l-.025-.011a5.224,5.224,0,0,1-1.472.4A2.583,2.583,0,0,0,16.142,5.2a5.318,5.318,0,0,1-1.63.617,2.564,2.564,0,0,0-4.437,1.751,2.662,2.662,0,0,0,.066.586A7.29,7.29,0,0,1,4.855,5.477a2.5,2.5,0,0,0-.346,1.29A2.569,2.569,0,0,0,5.648,8.9a2.577,2.577,0,0,1-1.162-.321v.032a2.572,2.572,0,0,0,2.057,2.516,2.615,2.615,0,0,1-.676.089,2.531,2.531,0,0,1-.477-.045,2.574,2.574,0,0,0,2.4,1.782,5.173,5.173,0,0,1-3.181,1.1A5.384,5.384,0,0,1,4,14.018Z" fill="#e0011a"/>
</svg>
